<?xml version="1.0" standalone="no"?>
<!DOCTYPE svg PUBLIC "-//W3C//DTD SVG 1.1//EN" "http://www.w3.org/Graphics/SVG/1.1/DTD/svg11.dtd">
<svg viewBox="0 0 1024 1024" version="1.1" xmlns="http://www.w3.org/2000/svg" xmlns:xlink="http://www.w3.org/1999/xlink" width="200" height="200">
    <path d="M320,256 C320,181.856 377.856,124 452,124 C526.144,124 584,181.856 584,256 C584,330.144 526.144,388 452,388 C377.856,388 320,330.144 320,256 Z" fill="#000"/>
    <path d="M684,636 C684,561.856 741.856,504 816,504 C890.144,504 948,561.856 948,636 C948,710.144 890.144,768 816,768 C741.856,768 684,710.144 684,636 Z" fill="#000"/>
    <path d="M586,474 L638,474 L662,524 L614,524 L586,474 Z" fill="#000"/>
    <path d="M362,524 L414,524 L438,474 L390,474 L362,524 Z" fill="#000"/>
</svg>