<?xml version="1.0" standalone="no"?><!DOCTYPE svg PUBLIC "-//W3C//DTD SVG 1.1//EN" "http://www.w3.org/Graphics/SVG/1.1/DTD/svg11.dtd"><svg t="1693905160704" class="icon" viewBox="0 0 1024 1024" version="1.1" xmlns="http://www.w3.org/2000/svg" p-id="4500" xmlns:xlink="http://www.w3.org/1999/xlink" width="200" height="200"><path d="M832 192 512 192c0-52.928-43.072-96-96-96l-64 0C299.072 96 256 139.072 256 192L160 192C107.072 192 64 235.072 64 288l0 512c0 52.928 43.072 96 96 96l417.888 0c9.088 0 17.792-3.872 23.84-10.656s8.96-15.84 7.968-24.864c-0.928-8.416-1.568-16.864-1.568-25.536 0-141.664 132.192-254.688 279.904-216.672 9.568 2.4 19.744 0.352 27.584-5.728C923.424 606.496 928 597.152 928 587.296L928 288C928 235.072 884.928 192 832 192zM480 736c-105.888 0-192-86.112-192-192s86.112-192 192-192 192 86.112 192 192S585.888 736 480 736zM784 416c-26.496 0-48-21.504-48-48s21.504-48 48-48 48 21.504 48 48S810.496 416 784 416z" fill="#5E6570" p-id="4501"></path><path d="M832 673.984c-88.384 0-160 71.616-160 160s71.616 160 160 160 160-71.616 160-160S920.384 673.984 832 673.984zM896 864l-32 0 0 32c0 17.696-14.304 32-32 32s-32-14.304-32-32l0-32-32 0c-17.696 0-32-14.304-32-32s14.304-32 32-32l32 0 0-32c0-17.696 14.304-32 32-32s32 14.304 32 32l0 32 32 0c17.696 0 32 14.304 32 32S913.696 864 896 864z" fill="#5E6570" p-id="4502"></path></svg>