<?xml version="1.0" standalone="no"?><!DOCTYPE svg PUBLIC "-//W3C//DTD SVG 1.1//EN" "http://www.w3.org/Graphics/SVG/1.1/DTD/svg11.dtd"><svg t="1693905063539" class="icon" viewBox="0 0 1024 1024" version="1.1" xmlns="http://www.w3.org/2000/svg" p-id="1441" xmlns:xlink="http://www.w3.org/1999/xlink" width="200" height="200"><path d="M609.066667 131.413333h-194.133334a329.173333 329.173333 0 0 0-125.226666 633.813334 189.866667 189.866667 0 0 1-31.573334 91.733333 21.333333 21.333333 0 0 0-3.413333 23.68 21.333333 21.333333 0 0 0 19.2 11.946667h1.493333c117.76-7.893333 182.186667-64 213.333334-101.973334h120.96a329.6 329.6 0 0 0 0-659.2z" fill="#3C3D3F" p-id="1442"></path><path d="M325.333333 512a42.666667 42.666667 0 1 1 42.666667-42.666667 42.666667 42.666667 0 0 1-42.666667 42.666667zM512 512a42.666667 42.666667 0 1 1 42.666667-42.666667 42.666667 42.666667 0 0 1-42.666667 42.666667zM698.666667 512a42.666667 42.666667 0 1 1 42.666666-42.666667 42.666667 42.666667 0 0 1-42.666666 42.666667z" fill="#FFFFFF" p-id="1443"></path></svg>